<svg width="12" height="11" viewBox="0 0 12 11" fill="none" xmlns="http://www.w3.org/2000/svg">
    <path d="M2.25 4C2.64844 4 3 4.35156 3 4.75V9.95312C3 10.3516 2.64844 10.6797 2.25 10.6797H0.75C0.328125 10.6797 0 10.3516 0 9.95312V4.72656C0 4.32812 0.328125 4 0.75 4H2.25ZM12 4.82031C12 5.38281 11.6953 5.85156 11.2734 6.13281C11.2969 6.27344 11.3203 6.39062 11.3203 6.50781C11.3203 7.04688 11.0391 7.51562 10.6406 7.79688C10.6406 7.86719 10.6406 7.9375 10.6406 8.00781C10.6406 8.54688 10.3828 9.01562 9.96094 9.29688C9.91406 10.1172 9.23438 10.75 8.41406 10.75H7.17188C6.32812 10.75 5.50781 10.4922 4.82812 9.97656L3.96094 9.34375C3.82031 9.22656 3.72656 9.0625 3.72656 8.875C3.72656 8.59375 3.98438 8.3125 4.3125 8.3125C4.42969 8.3125 4.54688 8.35938 4.64062 8.42969L5.50781 9.08594C5.97656 9.4375 6.5625 9.64844 7.17188 9.64844H8.41406C8.64844 9.64844 8.85938 9.4375 8.85938 9.20312C8.85938 9.10938 8.8125 9.08594 8.8125 8.96875C8.8125 8.33594 9.51562 8.54688 9.51562 8.00781C9.51562 7.79688 9.375 7.75 9.375 7.49219C9.375 6.78906 10.1953 7.09375 10.1953 6.50781C10.1953 6.20312 9.91406 6.20312 9.91406 5.82812C9.91406 5.54688 10.1484 5.28906 10.4531 5.26562C10.6875 5.26562 10.875 5.05469 10.875 4.82031C10.875 4.58594 10.6641 4.39844 10.4062 4.375H7.19531C6.89062 4.375 6.63281 4.16406 6.63281 3.83594C6.63281 3.74219 6.65625 3.64844 6.70312 3.55469C7.125 2.80469 7.3125 2.05469 7.3125 1.86719C7.3125 1.67969 7.17188 1.39844 6.77344 1.39844C6 1.39844 6.44531 2.82812 4.64062 4.25781C4.54688 4.35156 4.42969 4.375 4.3125 4.375C3.98438 4.375 3.75 4.11719 3.75 3.8125C3.75 3.17969 4.40625 3.53125 5.15625 1.63281C5.39062 1.02344 5.69531 0.273438 6.77344 0.273438C7.80469 0.273438 8.4375 1.07031 8.4375 1.86719C8.4375 2.17188 8.29688 2.6875 8.08594 3.27344H10.4297C11.2734 3.27344 12 3.97656 12 4.82031Z" fill="#649BE9"/>
</svg>
